<svg width="128" height="128" viewBox="0 0 128 128" fill="none" xmlns="http://www.w3.org/2000/svg">
<g clip-path="url(#clip0_38_201)">
<path d="M64.8282 127.752L49.5825 118.604C49.2813 118.423 49.097 118.098 49.097 117.747V10.1835C49.097 9.8291 49.2846 9.50117 49.5901 9.32152L64.8303 0.359131C65.145 0.174057 65.5356 0.175209 65.8492 0.362137L79.7968 8.67523C80.0994 8.85561 80.2848 9.18192 80.2848 9.53423V55.9479C80.2848 56.7654 81.2124 57.2375 81.8733 56.7564L115.363 32.3769C116.024 31.8957 116.952 32.3678 116.952 33.1853L116.952 95.0485C116.952 95.3762 116.791 95.6832 116.522 95.87L101.672 106.177C101.009 106.638 100.102 106.163 100.102 105.356V72.7088C100.102 71.924 99.2394 71.4451 98.5733 71.86L80.7561 82.9593C80.463 83.1419 80.2848 83.4628 80.2848 83.8081V118.596C80.2848 118.948 80.0992 119.275 79.7963 119.455L65.8542 127.753C65.5379 127.942 65.1438 127.941 64.8282 127.752Z" fill="#00FFF6"/>
<path d="M37.1907 17.6383L43.6374 13.9191C44.304 13.5344 45.1371 14.0156 45.1371 14.7852V113.314C45.1371 114.088 44.2962 114.569 43.6296 114.176L37.1829 110.379C36.8777 110.2 36.6904 109.872 36.6904 109.518V18.5045C36.6904 18.1471 36.8811 17.8169 37.1907 17.6383Z" fill="#00FFF6"/>
<path d="M24.8344 25.0375L31.2811 21.2077C31.9477 20.8117 32.7919 21.2921 32.7919 22.0674V106.051C32.7919 106.824 31.9524 107.305 31.2857 106.914L24.839 103.13C24.5331 102.951 24.3452 102.623 24.3452 102.268V25.8972C24.3452 25.5444 24.5311 25.2177 24.8344 25.0375Z" fill="#00FFF6"/>
<path d="M12.493 32.2974L18.9397 28.5053C19.6063 28.1131 20.4467 28.5938 20.4467 29.3672V98.7568C20.4467 99.5285 19.6096 100.009 18.9429 99.6206L12.4962 95.8609C12.1889 95.6817 12 95.3527 12 94.997V33.1594C12 32.805 12.1875 32.4771 12.493 32.2974Z" fill="#00FFF6"/>
</g>
<defs>
<clipPath id="clip0_38_201">
<rect width="128" height="128" fill="white"/>
</clipPath>
</defs>
</svg>
