<svg width="46" height="50" viewBox="0 0 46 50" fill="none" xmlns="http://www.w3.org/2000/svg">
<path d="M10 33.8026C10 34.1981 10.2331 34.5565 10.5947 34.7168L16.5947 37.3769C17.2559 37.6701 18 37.186 18 36.4628V30C18 29.4477 18.4477 29 19 29H27C27.5523 29 28 29.4477 28 30V47.1215C28 47.5162 27.7678 47.8741 27.4072 48.0348L23.4072 49.8184C23.148 49.934 22.852 49.934 22.5928 49.8184L0.59278 40.0094C0.232235 39.8487 0 39.4908 0 39.0961V11.0285C0 10.6355 0.230274 10.2789 0.588525 10.1171L8.58852 6.5054C9.25038 6.20659 10 6.69063 10 7.41682V33.8026Z" fill="#38EBFF"/>
<path d="M45.4114 10.1171C45.7697 10.2789 46 10.6355 46 11.0286V39.096C46 39.4908 45.7677 39.8487 45.4072 40.0094L37.4072 43.5758C36.7458 43.8707 36 43.3866 36 42.6625V15.9425C36 15.547 35.7669 15.1886 35.4053 15.0283L29.4053 12.3682C28.7441 12.075 28 12.5591 28 13.2824V20C28 20.5523 27.5523 21 27 21H19C18.4477 21 18 20.5523 18 20V2.90262C18 2.50952 18.2303 2.15288 18.5886 1.99116L22.5886 0.185705C22.8501 0.0676376 23.1498 0.0676448 23.4114 0.185725L45.4114 10.1171Z" fill="#38EBFF"/>
</svg>
