<svg width="38" height="43" viewBox="0 0 38 43" fill="none" xmlns="http://www.w3.org/2000/svg">
<mask id="mask0_41_228" style="mask-type:alpha" maskUnits="userSpaceOnUse" x="0" y="0" width="38" height="42">
<path d="M0 12.9092C0 11.4565 0.787568 10.118 2.05743 9.41254L17.0574 1.07921C18.2655 0.408044 19.7345 0.408045 20.9426 1.07921L35.9426 9.41254C37.2124 10.118 38 11.4565 38 12.9092V29.313C38 30.7657 37.2124 32.1042 35.9426 32.8097L20.9426 41.143C19.7345 41.8142 18.2655 41.8142 17.0574 41.143L2.05743 32.8097C0.787566 32.1042 0 30.7657 0 29.3131V12.9092Z" fill="#B10707"/>
</mask>
<g mask="url(#mask0_41_228)">
<path d="M25.6106 3.67258L19 0V42.2222L25.6106 38.5496C25.9281 38.3733 26.125 38.0387 26.125 37.6755V26.9791C26.125 26.615 26.3229 26.2796 26.6417 26.1036L31.3209 23.5207C31.6541 23.3368 32.0625 23.5778 32.0625 23.9585V34.1155C32.0625 34.4968 32.4721 34.7377 32.8053 34.5526L38 31.6667V14.1598C38 13.3978 37.1819 12.9158 36.5153 13.2851L26.125 19.0422V4.54674C26.125 4.18357 25.9281 3.84895 25.6106 3.67258Z" fill="#00FFF6"/>
<path d="M25.6106 3.67258L19 0V42.2222L25.6106 38.5496C25.9281 38.3733 26.125 38.0387 26.125 37.6755V26.9791C26.125 26.615 26.3229 26.2796 26.6417 26.1036L31.3209 23.5207C31.6541 23.3368 32.0625 23.5778 32.0625 23.9585V34.1155C32.0625 34.4968 32.4721 34.7377 32.8053 34.5526L38 31.6667V14.1598C38 13.3978 37.1819 12.9158 36.5153 13.2851L26.125 19.0422V4.54674C26.125 4.18357 25.9281 3.84895 25.6106 3.67258Z" fill="#00FFF6"/>
<path d="M31.3894 3.67258L38 0V42.2222L31.3894 38.5496C31.0719 38.3733 30.875 38.0387 30.875 37.6755V26.9791C30.875 26.615 30.6771 26.2796 30.3583 26.1036L25.6791 23.5207C25.3459 23.3368 24.9375 23.5778 24.9375 23.9585V34.1155C24.9375 34.4968 24.5279 34.7377 24.1947 34.5526L19 31.6667V14.1598C19 13.3978 19.8181 12.9158 20.4847 13.2851L30.875 19.0422V4.54674C30.875 4.18357 31.0719 3.84895 31.3894 3.67258Z" fill="#00FFF6"/>
<path d="M1.39971e-06 38.6888L4.67325e-07 2.81096L18.6561 0.0508808C18.8373 0.0240739 19 0.164483 19 0.347651L19 41.6432C19 41.8295 18.832 41.9707 18.6485 41.9387L1.39971e-06 38.6888Z" fill="#00FFF6" fill-opacity="0.8"/>
</g>
</svg>
