<svg width="174" height="39" viewBox="0 0 174 39" fill="none" xmlns="http://www.w3.org/2000/svg">
<path d="M21 39C20.4477 39 20 38.5523 20 38L20 26C20 25.4477 20.4477 25 21 25L36 25C36.5523 25 37 25.4477 37 26V38C37 38.5523 36.5523 39 36 39L21 39Z" fill="#00FFF6"/>
<path d="M1 39C0.447716 39 5.48678e-07 38.5523 5.24537e-07 38L0 26C-2.41411e-08 25.4477 0.447715 25 1 25L16 25C16.5523 25 17 25.4477 17 26V38C17 38.5523 16.5523 39 16 39L1 39Z" fill="#00FFF6"/>
<path d="M0 18C0 17.4477 0.447715 17 1 17H36C36.5523 17 37 17.4477 37 18V21C37 21.5523 36.5523 22 36 22H0.999999C0.447715 22 0 21.5523 0 21V18Z" fill="#00FFF6"/>
<path d="M1 14C0.447716 14 5.48678e-07 13.5523 5.24537e-07 13L0 1C-2.41411e-08 0.447716 0.447715 6.79812e-07 1 6.55671e-07L16 0C16.5523 -2.41411e-08 17 0.447715 17 1V13C17 13.5523 16.5523 14 16 14L1 14Z" fill="#00FFF6"/>
<path d="M20 0H23C30.732 0 37 6.26801 37 14H20V0Z" fill="#00FFF6" fill-opacity="0.6"/>
<path d="M164.579 34.28C163.326 34.28 162.179 34.1867 161.139 34C160.126 33.7867 159.246 33.52 158.499 33.2C157.752 32.88 157.152 32.5733 156.699 32.28C156.379 32.0667 156.112 31.8667 155.899 31.68C155.686 31.4667 155.579 31.2133 155.579 30.92C155.579 30.68 155.619 30.3867 155.699 30.04C155.779 29.6933 155.886 29.3467 156.019 29C156.152 28.6533 156.299 28.3733 156.459 28.16C156.646 27.92 156.846 27.8 157.059 27.8C157.299 27.8 157.766 27.9733 158.459 28.32C159.152 28.64 159.979 28.9733 160.939 29.32C161.926 29.64 162.992 29.8 164.139 29.8C165.046 29.8 165.792 29.68 166.379 29.44C166.966 29.2 167.406 28.8267 167.699 28.32C168.019 27.8133 168.179 27.1867 168.179 26.44C168.179 25.7467 167.992 25.16 167.619 24.68C167.272 24.2 166.806 23.7867 166.219 23.44C165.659 23.0667 165.006 22.7467 164.259 22.48C163.539 22.1867 162.806 21.8667 162.059 21.52C161.312 21.2 160.579 20.84 159.859 20.44C159.166 20.0133 158.526 19.5067 157.939 18.92C157.379 18.3333 156.926 17.6 156.579 16.72C156.259 15.84 156.099 14.7867 156.099 13.56C156.099 12.2533 156.352 11.1067 156.859 10.12C157.366 9.13333 158.046 8.32 158.899 7.68C159.779 7.01333 160.766 6.52 161.859 6.2C162.979 5.88 164.139 5.72 165.339 5.72C166.139 5.72 166.926 5.78667 167.699 5.92C168.472 6.05333 169.179 6.22667 169.819 6.44C170.486 6.65333 171.032 6.90666 171.459 7.2C171.726 7.38666 171.939 7.58667 172.099 7.8C172.286 7.98667 172.379 8.17333 172.379 8.36C172.379 8.57333 172.339 8.86667 172.259 9.24C172.179 9.58667 172.072 9.93333 171.939 10.28C171.806 10.6267 171.646 10.92 171.459 11.16C171.299 11.3733 171.112 11.48 170.899 11.48C170.606 11.48 170.192 11.3733 169.659 11.16C169.152 10.92 168.539 10.6933 167.819 10.48C167.099 10.2667 166.286 10.16 165.379 10.16C164.526 10.16 163.806 10.28 163.219 10.52C162.632 10.76 162.179 11.12 161.859 11.6C161.566 12.0533 161.419 12.6267 161.419 13.32C161.419 14.0933 161.632 14.7333 162.059 15.24C162.512 15.72 163.099 16.12 163.819 16.44C164.566 16.76 165.352 17.0933 166.179 17.44C167.032 17.7867 167.886 18.1733 168.739 18.6C169.619 19.0267 170.419 19.56 171.139 20.2C171.859 20.8133 172.432 21.5867 172.859 22.52C173.312 23.4533 173.539 24.6133 173.539 26C173.539 27.44 173.299 28.6933 172.819 29.76C172.366 30.8 171.712 31.6533 170.859 32.32C170.006 32.9867 169.046 33.48 167.979 33.8C166.912 34.12 165.779 34.28 164.579 34.28Z" fill="#00FFF6"/>
<path d="M143.485 34.28C142.765 34.28 142.045 34.2133 141.325 34.08C140.605 33.9467 139.992 33.76 139.485 33.52C139.005 33.2533 138.765 32.9467 138.765 32.6C138.765 32.44 138.792 32.2 138.845 31.88C138.899 31.5333 138.979 31.1733 139.085 30.8C139.192 30.4267 139.325 30.1067 139.485 29.84C139.672 29.5733 139.872 29.44 140.085 29.44C140.299 29.44 140.512 29.48 140.725 29.56C140.965 29.6133 141.272 29.68 141.645 29.76C142.019 29.84 142.499 29.88 143.085 29.88C144.285 29.88 145.152 29.5733 145.685 28.96C146.245 28.32 146.525 27.2933 146.525 25.88V7.08C146.525 6.70666 146.685 6.42667 147.005 6.24C147.352 6.02667 147.899 5.92 148.645 5.92H149.685C150.459 5.92 151.005 6.02667 151.325 6.24C151.645 6.42667 151.805 6.70666 151.805 7.08V25.48C151.805 28.2533 151.139 30.4133 149.805 31.96C148.472 33.5067 146.365 34.28 143.485 34.28Z" fill="#00FFF6"/>
<path d="M123.648 34.28C121.568 34.28 120.008 33.7467 118.968 32.68C117.928 31.5867 117.408 30.16 117.408 28.4C117.408 27.3867 117.568 26.44 117.888 25.56C118.235 24.6533 118.835 23.8667 119.688 23.2C120.542 22.5067 121.755 21.9733 123.328 21.6C124.928 21.2 126.982 21 129.488 21V19.56C129.488 19 129.368 18.52 129.128 18.12C128.915 17.72 128.542 17.4133 128.008 17.2C127.502 16.96 126.822 16.84 125.968 16.84C124.928 16.84 123.995 16.96 123.168 17.2C122.368 17.4133 121.688 17.64 121.128 17.88C120.595 18.0933 120.208 18.2 119.968 18.2C119.808 18.2 119.648 18.0933 119.488 17.88C119.328 17.6667 119.182 17.4133 119.048 17.12C118.915 16.8 118.808 16.4933 118.728 16.2C118.648 15.88 118.608 15.6267 118.608 15.44C118.608 15.12 118.835 14.8133 119.288 14.52C119.742 14.2 120.342 13.9067 121.088 13.64C121.835 13.3733 122.662 13.1733 123.568 13.04C124.502 12.88 125.422 12.8 126.328 12.8C127.768 12.8 129.008 12.96 130.048 13.28C131.088 13.5733 131.942 14.0133 132.608 14.6C133.275 15.1867 133.768 15.88 134.088 16.68C134.408 17.48 134.568 18.36 134.568 19.32V27.32C134.568 28.6 134.595 29.6 134.648 30.32C134.728 31.04 134.808 31.5867 134.888 31.96C134.968 32.3333 135.008 32.64 135.008 32.88C135.008 33.0933 134.862 33.28 134.568 33.44C134.275 33.5733 133.915 33.6933 133.488 33.8C133.088 33.88 132.675 33.9467 132.248 34C131.848 34.0267 131.528 34.04 131.288 34.04C130.915 34.04 130.635 33.9067 130.448 33.64C130.288 33.3733 130.155 33.0267 130.048 32.6C129.968 32.1733 129.888 31.7333 129.808 31.28C129.568 31.5733 129.182 31.96 128.648 32.44C128.142 32.92 127.462 33.3467 126.608 33.72C125.782 34.0933 124.795 34.28 123.648 34.28ZM125.008 30.24C125.675 30.24 126.288 30.12 126.848 29.88C127.408 29.64 127.915 29.32 128.368 28.92C128.822 28.52 129.195 28.08 129.488 27.6V24.56C128.182 24.56 127.088 24.6267 126.208 24.76C125.328 24.8933 124.608 25.0933 124.048 25.36C123.515 25.6267 123.128 25.9867 122.888 26.44C122.648 26.8667 122.528 27.36 122.528 27.92C122.528 28.64 122.728 29.2133 123.128 29.64C123.555 30.04 124.182 30.24 125.008 30.24Z" fill="#00FFF6"/>
<path d="M111.013 34.28C109.813 34.28 108.8 34.0667 107.973 33.64C107.173 33.2133 106.573 32.5733 106.173 31.72C105.773 30.84 105.573 29.7867 105.573 28.56V5.04C105.573 4.66667 105.733 4.38667 106.053 4.2C106.373 3.98667 106.92 3.88 107.693 3.88H108.533C109.307 3.88 109.853 3.98667 110.173 4.2C110.493 4.38667 110.653 4.66667 110.653 5.04V28.28C110.653 28.9733 110.76 29.4667 110.973 29.76C111.213 30.0267 111.627 30.16 112.213 30.16C112.72 30.16 113.093 30.1067 113.333 30C113.6 29.8667 113.827 29.8 114.013 29.8C114.173 29.8 114.307 29.92 114.413 30.16C114.547 30.3733 114.653 30.6533 114.733 31C114.813 31.32 114.867 31.64 114.893 31.96C114.947 32.28 114.973 32.5067 114.973 32.64C114.973 32.9333 114.76 33.2133 114.333 33.48C113.907 33.7467 113.387 33.9467 112.773 34.08C112.16 34.2133 111.573 34.28 111.013 34.28Z" fill="#00FFF6"/>
<path d="M99.1384 34.28C97.9384 34.28 96.9251 34.0667 96.0984 33.64C95.2984 33.2133 94.6984 32.5733 94.2984 31.72C93.8984 30.84 93.6984 29.7867 93.6984 28.56V5.04C93.6984 4.66667 93.8584 4.38667 94.1784 4.2C94.4984 3.98667 95.0451 3.88 95.8184 3.88H96.6584C97.4318 3.88 97.9784 3.98667 98.2984 4.2C98.6184 4.38667 98.7784 4.66667 98.7784 5.04V28.28C98.7784 28.9733 98.8851 29.4667 99.0984 29.76C99.3384 30.0267 99.7518 30.16 100.338 30.16C100.845 30.16 101.218 30.1067 101.458 30C101.725 29.8667 101.952 29.8 102.138 29.8C102.298 29.8 102.432 29.92 102.538 30.16C102.672 30.3733 102.778 30.6533 102.858 31C102.938 31.32 102.992 31.64 103.018 31.96C103.072 32.28 103.098 32.5067 103.098 32.64C103.098 32.9333 102.885 33.2133 102.458 33.48C102.032 33.7467 101.512 33.9467 100.898 34.08C100.285 34.2133 99.6984 34.28 99.1384 34.28Z" fill="#00FFF6"/>
<path d="M82.336 34.28C78.896 34.28 76.3493 33.3733 74.696 31.56C73.0426 29.7467 72.216 27.12 72.216 23.68C72.216 21.1467 72.6026 19.08 73.376 17.48C74.176 15.88 75.296 14.7067 76.736 13.96C78.176 13.1867 79.856 12.8 81.776 12.8C83.8026 12.8 85.4293 13.2533 86.656 14.16C87.9093 15.04 88.816 16.2533 89.376 17.8C89.9626 19.32 90.256 21.0533 90.256 23C90.256 23.2933 90.1493 23.6267 89.936 24C89.7226 24.3467 89.4693 24.64 89.1759 24.88C88.8826 25.12 88.6026 25.24 88.336 25.24H77.376C77.4293 27.0533 77.9093 28.3467 78.8159 29.12C79.7226 29.8667 80.9626 30.24 82.5359 30.24C83.5759 30.24 84.4826 30.1067 85.256 29.84C86.0293 29.5733 86.6559 29.3067 87.1359 29.04C87.6426 28.7733 88.0026 28.64 88.216 28.64C88.456 28.64 88.6826 28.8133 88.896 29.16C89.136 29.5067 89.3359 29.8933 89.4959 30.32C89.6559 30.7467 89.736 31.08 89.736 31.32C89.736 31.6667 89.496 32.0133 89.016 32.36C88.5626 32.7067 87.9493 33.04 87.1759 33.36C86.4293 33.6533 85.6293 33.88 84.776 34.04C83.9226 34.2 83.1093 34.28 82.336 34.28ZM77.336 21.68H85.376C85.376 20.08 85.0426 18.88 84.376 18.08C83.736 17.2533 82.7759 16.84 81.4959 16.84C80.7759 16.84 80.0959 17 79.4559 17.32C78.8426 17.6133 78.336 18.1067 77.936 18.8C77.5626 19.4933 77.3626 20.4533 77.336 21.68Z" fill="#00FFF6"/>
<path d="M47.2 34.08C46.4533 34.08 45.9067 33.9867 45.56 33.8C45.2133 33.5867 45.04 33.2933 45.04 32.92V7.08C45.04 6.70666 45.2133 6.42667 45.56 6.24C45.9067 6.02667 46.4533 5.92 47.2 5.92H48.2C48.9733 5.92 49.52 6.02667 49.84 6.24C50.1867 6.42667 50.36 6.70666 50.36 7.08V17.44H62.96V7.08C62.96 6.70666 63.1333 6.42667 63.48 6.24C63.8267 6.02667 64.3733 5.92 65.12 5.92H66.12C66.8933 5.92 67.44 6.02667 67.76 6.24C68.1067 6.42667 68.28 6.70666 68.28 7.08V32.92C68.28 33.2933 68.1067 33.5867 67.76 33.8C67.44 33.9867 66.8933 34.08 66.12 34.08H65.12C64.3733 34.08 63.8267 33.9867 63.48 33.8C63.1333 33.5867 62.96 33.2933 62.96 32.92V21.92H50.36V32.92C50.36 33.2933 50.1867 33.5867 49.84 33.8C49.52 33.9867 48.9733 34.08 48.2 34.08H47.2Z" fill="#00FFF6"/>
</svg>
