<svg width="177" height="43" viewBox="0 0 177 43" fill="none" xmlns="http://www.w3.org/2000/svg">
<path d="M167.579 36.4C166.326 36.4 165.179 36.3067 164.139 36.12C163.126 35.9067 162.246 35.64 161.499 35.32C160.752 35 160.152 34.6933 159.699 34.4C159.379 34.1867 159.112 33.9867 158.899 33.8C158.686 33.5867 158.579 33.3333 158.579 33.04C158.579 32.8 158.619 32.5067 158.699 32.16C158.779 31.8133 158.886 31.4667 159.019 31.12C159.152 30.7733 159.299 30.4933 159.459 30.28C159.646 30.04 159.846 29.92 160.059 29.92C160.299 29.92 160.766 30.0933 161.459 30.44C162.152 30.76 162.979 31.0933 163.939 31.44C164.926 31.76 165.992 31.92 167.139 31.92C168.046 31.92 168.792 31.8 169.379 31.56C169.966 31.32 170.406 30.9467 170.699 30.44C171.019 29.9333 171.179 29.3067 171.179 28.56C171.179 27.8667 170.992 27.28 170.619 26.8C170.272 26.32 169.806 25.9067 169.219 25.56C168.659 25.1867 168.006 24.8667 167.259 24.6C166.539 24.3067 165.806 23.9867 165.059 23.64C164.312 23.32 163.579 22.96 162.859 22.56C162.166 22.1333 161.526 21.6267 160.939 21.04C160.379 20.4533 159.926 19.72 159.579 18.84C159.259 17.96 159.099 16.9067 159.099 15.68C159.099 14.3733 159.352 13.2267 159.859 12.24C160.366 11.2533 161.046 10.44 161.899 9.79999C162.779 9.13333 163.766 8.63999 164.859 8.31999C165.979 7.99999 167.139 7.83999 168.339 7.83999C169.139 7.83999 169.926 7.90666 170.699 8.03999C171.472 8.17333 172.179 8.34666 172.819 8.55999C173.486 8.77333 174.032 9.02666 174.459 9.31999C174.726 9.50666 174.939 9.70666 175.099 9.91999C175.286 10.1067 175.379 10.2933 175.379 10.48C175.379 10.6933 175.339 10.9867 175.259 11.36C175.179 11.7067 175.072 12.0533 174.939 12.4C174.806 12.7467 174.646 13.04 174.459 13.28C174.299 13.4933 174.112 13.6 173.899 13.6C173.606 13.6 173.192 13.4933 172.659 13.28C172.152 13.04 171.539 12.8133 170.819 12.6C170.099 12.3867 169.286 12.28 168.379 12.28C167.526 12.28 166.806 12.4 166.219 12.64C165.632 12.88 165.179 13.24 164.859 13.72C164.566 14.1733 164.419 14.7467 164.419 15.44C164.419 16.2133 164.632 16.8533 165.059 17.36C165.512 17.84 166.099 18.24 166.819 18.56C167.566 18.88 168.352 19.2133 169.179 19.56C170.032 19.9067 170.886 20.2933 171.739 20.72C172.619 21.1467 173.419 21.68 174.139 22.32C174.859 22.9333 175.432 23.7067 175.859 24.64C176.312 25.5733 176.539 26.7333 176.539 28.12C176.539 29.56 176.299 30.8133 175.819 31.88C175.366 32.92 174.712 33.7733 173.859 34.44C173.006 35.1067 172.046 35.6 170.979 35.92C169.912 36.24 168.779 36.4 167.579 36.4Z" fill="#00FFF6"/>
<path d="M146.485 36.4C145.765 36.4 145.045 36.3333 144.325 36.2C143.605 36.0667 142.992 35.88 142.485 35.64C142.005 35.3733 141.765 35.0667 141.765 34.72C141.765 34.56 141.792 34.32 141.845 34C141.899 33.6533 141.979 33.2933 142.085 32.92C142.192 32.5467 142.325 32.2267 142.485 31.96C142.672 31.6933 142.872 31.56 143.085 31.56C143.299 31.56 143.512 31.6 143.725 31.68C143.965 31.7333 144.272 31.8 144.645 31.88C145.019 31.96 145.499 32 146.085 32C147.285 32 148.152 31.6933 148.685 31.08C149.245 30.44 149.525 29.4133 149.525 28V9.19999C149.525 8.82666 149.685 8.54666 150.005 8.35999C150.352 8.14666 150.899 8.03999 151.645 8.03999H152.685C153.459 8.03999 154.005 8.14666 154.325 8.35999C154.645 8.54666 154.805 8.82666 154.805 9.19999V27.6C154.805 30.3733 154.139 32.5333 152.805 34.08C151.472 35.6267 149.365 36.4 146.485 36.4Z" fill="#00FFF6"/>
<path d="M126.648 36.4C124.568 36.4 123.008 35.8667 121.968 34.8C120.928 33.7067 120.408 32.28 120.408 30.52C120.408 29.5066 120.568 28.56 120.888 27.68C121.235 26.7733 121.835 25.9866 122.688 25.32C123.542 24.6266 124.755 24.0933 126.328 23.72C127.928 23.32 129.982 23.12 132.488 23.12V21.68C132.488 21.12 132.368 20.64 132.128 20.24C131.915 19.84 131.542 19.5333 131.008 19.32C130.502 19.08 129.822 18.96 128.968 18.96C127.928 18.96 126.995 19.08 126.168 19.32C125.368 19.5333 124.688 19.76 124.128 20C123.595 20.2133 123.208 20.32 122.968 20.32C122.808 20.32 122.648 20.2133 122.488 20C122.328 19.7866 122.182 19.5333 122.048 19.24C121.915 18.92 121.808 18.6133 121.728 18.32C121.648 18 121.608 17.7466 121.608 17.56C121.608 17.24 121.835 16.9333 122.288 16.64C122.742 16.32 123.342 16.0266 124.088 15.76C124.835 15.4933 125.662 15.2933 126.568 15.16C127.502 15 128.422 14.92 129.328 14.92C130.768 14.92 132.008 15.08 133.048 15.4C134.088 15.6933 134.942 16.1333 135.608 16.72C136.275 17.3066 136.768 18 137.088 18.8C137.408 19.6 137.568 20.48 137.568 21.44V29.44C137.568 30.72 137.595 31.72 137.648 32.44C137.728 33.16 137.808 33.7066 137.888 34.08C137.968 34.4533 138.008 34.76 138.008 35C138.008 35.2133 137.862 35.4 137.568 35.56C137.275 35.6933 136.915 35.8133 136.488 35.92C136.088 36 135.675 36.0667 135.248 36.12C134.848 36.1467 134.528 36.16 134.288 36.16C133.915 36.16 133.635 36.0266 133.448 35.76C133.288 35.4933 133.155 35.1466 133.048 34.72C132.968 34.2933 132.888 33.8533 132.808 33.4C132.568 33.6933 132.182 34.08 131.648 34.56C131.142 35.04 130.462 35.4667 129.608 35.84C128.782 36.2133 127.795 36.4 126.648 36.4ZM128.008 32.36C128.675 32.36 129.288 32.24 129.848 32C130.408 31.76 130.915 31.44 131.368 31.04C131.822 30.64 132.195 30.2 132.488 29.72V26.68C131.182 26.68 130.088 26.7467 129.208 26.88C128.328 27.0133 127.608 27.2133 127.048 27.48C126.515 27.7467 126.128 28.1066 125.888 28.56C125.648 28.9866 125.528 29.48 125.528 30.04C125.528 30.76 125.728 31.3333 126.128 31.76C126.555 32.16 127.182 32.36 128.008 32.36Z" fill="#00FFF6"/>
<path d="M114.013 36.4C112.813 36.4 111.8 36.1867 110.973 35.76C110.173 35.3333 109.573 34.6933 109.173 33.84C108.773 32.96 108.573 31.9067 108.573 30.68V7.16C108.573 6.78667 108.733 6.50667 109.053 6.32C109.373 6.10667 109.92 6 110.693 6H111.533C112.307 6 112.853 6.10667 113.173 6.32C113.493 6.50667 113.653 6.78667 113.653 7.16V30.4C113.653 31.0933 113.76 31.5867 113.973 31.88C114.213 32.1467 114.627 32.28 115.213 32.28C115.72 32.28 116.093 32.2267 116.333 32.12C116.6 31.9867 116.827 31.92 117.013 31.92C117.173 31.92 117.307 32.04 117.413 32.28C117.547 32.4933 117.653 32.7733 117.733 33.12C117.813 33.44 117.867 33.76 117.893 34.08C117.947 34.4 117.973 34.6267 117.973 34.76C117.973 35.0533 117.76 35.3333 117.333 35.6C116.907 35.8667 116.387 36.0667 115.773 36.2C115.16 36.3333 114.573 36.4 114.013 36.4Z" fill="#00FFF6"/>
<path d="M102.138 36.4C100.938 36.4 99.9251 36.1867 99.0984 35.76C98.2984 35.3333 97.6984 34.6933 97.2984 33.84C96.8984 32.96 96.6984 31.9067 96.6984 30.68V7.16C96.6984 6.78667 96.8584 6.50667 97.1784 6.32C97.4984 6.10667 98.0451 6 98.8184 6H99.6584C100.432 6 100.978 6.10667 101.298 6.32C101.618 6.50667 101.778 6.78667 101.778 7.16V30.4C101.778 31.0933 101.885 31.5867 102.098 31.88C102.338 32.1467 102.752 32.28 103.338 32.28C103.845 32.28 104.218 32.2267 104.458 32.12C104.725 31.9867 104.952 31.92 105.138 31.92C105.298 31.92 105.432 32.04 105.538 32.28C105.672 32.4933 105.778 32.7733 105.858 33.12C105.938 33.44 105.992 33.76 106.018 34.08C106.072 34.4 106.098 34.6267 106.098 34.76C106.098 35.0533 105.885 35.3333 105.458 35.6C105.032 35.8667 104.512 36.0667 103.898 36.2C103.285 36.3333 102.698 36.4 102.138 36.4Z" fill="#00FFF6"/>
<path d="M85.336 36.4C81.896 36.4 79.3493 35.4933 77.696 33.68C76.0426 31.8667 75.216 29.24 75.216 25.8C75.216 23.2667 75.6026 21.2 76.376 19.6C77.176 18 78.296 16.8267 79.736 16.08C81.176 15.3066 82.856 14.92 84.776 14.92C86.8026 14.92 88.4293 15.3733 89.656 16.28C90.9093 17.16 91.816 18.3733 92.376 19.92C92.9626 21.44 93.256 23.1733 93.256 25.12C93.256 25.4133 93.1493 25.7467 92.936 26.12C92.7226 26.4666 92.4693 26.76 92.1759 27C91.8826 27.24 91.6026 27.36 91.336 27.36H80.376C80.4293 29.1733 80.9093 30.4666 81.8159 31.24C82.7226 31.9866 83.9626 32.36 85.5359 32.36C86.5759 32.36 87.4826 32.2267 88.256 31.96C89.0293 31.6933 89.6559 31.4267 90.1359 31.16C90.6426 30.8933 91.0026 30.76 91.216 30.76C91.456 30.76 91.6826 30.9333 91.896 31.28C92.136 31.6267 92.3359 32.0133 92.4959 32.44C92.6559 32.8667 92.736 33.2 92.736 33.44C92.736 33.7867 92.496 34.1333 92.016 34.48C91.5626 34.8267 90.9493 35.16 90.1759 35.48C89.4293 35.7733 88.6293 36 87.776 36.16C86.9226 36.32 86.1093 36.4 85.336 36.4ZM80.336 23.8H88.376C88.376 22.2 88.0426 21 87.376 20.2C86.736 19.3733 85.7759 18.96 84.4959 18.96C83.7759 18.96 83.0959 19.12 82.4559 19.44C81.8426 19.7333 81.336 20.2266 80.936 20.92C80.5626 21.6133 80.3626 22.5733 80.336 23.8Z" fill="#00FFF6"/>
<path d="M50.2 36.2C49.4533 36.2 48.9067 36.1067 48.56 35.92C48.2133 35.7067 48.04 35.4133 48.04 35.04V9.19999C48.04 8.82666 48.2133 8.54666 48.56 8.35999C48.9067 8.14666 49.4533 8.03999 50.2 8.03999H51.2C51.9733 8.03999 52.52 8.14666 52.84 8.35999C53.1867 8.54666 53.36 8.82666 53.36 9.19999V19.56H65.96V9.19999C65.96 8.82666 66.1333 8.54666 66.48 8.35999C66.8267 8.14666 67.3733 8.03999 68.12 8.03999H69.12C69.8933 8.03999 70.44 8.14666 70.76 8.35999C71.1067 8.54666 71.28 8.82666 71.28 9.19999V35.04C71.28 35.4133 71.1067 35.7067 70.76 35.92C70.44 36.1067 69.8933 36.2 69.12 36.2H68.12C67.3733 36.2 66.8267 36.1067 66.48 35.92C66.1333 35.7067 65.96 35.4133 65.96 35.04V24.04H53.36V35.04C53.36 35.4133 53.1867 35.7067 52.84 35.92C52.52 36.1067 51.9733 36.2 51.2 36.2H50.2Z" fill="#00FFF6"/>
<mask id="mask0_20_26" style="mask-type:alpha" maskUnits="userSpaceOnUse" x="0" y="0" width="38" height="42">
<path d="M0 12.9092C0 11.4565 0.787568 10.118 2.05743 9.41254L17.0574 1.07921C18.2655 0.408044 19.7345 0.408045 20.9426 1.07921L35.9426 9.41254C37.2124 10.118 38 11.4565 38 12.9092V29.313C38 30.7657 37.2124 32.1042 35.9426 32.8097L20.9426 41.143C19.7345 41.8142 18.2655 41.8142 17.0574 41.143L2.05743 32.8097C0.787566 32.1042 0 30.7657 0 29.3131V12.9092Z" fill="#B10707"/>
</mask>
<g mask="url(#mask0_20_26)">
<path d="M25.6106 3.67258L19 0V42.2222L25.6106 38.5496C25.9281 38.3733 26.125 38.0387 26.125 37.6755V26.9791C26.125 26.615 26.3229 26.2796 26.6417 26.1036L31.3209 23.5207C31.6541 23.3368 32.0625 23.5778 32.0625 23.9585V34.1155C32.0625 34.4968 32.4721 34.7377 32.8053 34.5526L38 31.6667V14.1598C38 13.3978 37.1819 12.9158 36.5153 13.2851L26.125 19.0422V4.54674C26.125 4.18357 25.9281 3.84895 25.6106 3.67258Z" fill="#00FFF6"/>
<path d="M25.6106 3.67258L19 0V42.2222L25.6106 38.5496C25.9281 38.3733 26.125 38.0387 26.125 37.6755V26.9791C26.125 26.615 26.3229 26.2796 26.6417 26.1036L31.3209 23.5207C31.6541 23.3368 32.0625 23.5778 32.0625 23.9585V34.1155C32.0625 34.4968 32.4721 34.7377 32.8053 34.5526L38 31.6667V14.1598C38 13.3978 37.1819 12.9158 36.5153 13.2851L26.125 19.0422V4.54674C26.125 4.18357 25.9281 3.84895 25.6106 3.67258Z" fill="#00FFF6"/>
<path d="M31.3894 3.67258L38 0V42.2222L31.3894 38.5496C31.0719 38.3733 30.875 38.0387 30.875 37.6755V26.9791C30.875 26.615 30.6771 26.2796 30.3583 26.1036L25.6791 23.5207C25.3459 23.3368 24.9375 23.5778 24.9375 23.9585V34.1155C24.9375 34.4968 24.5279 34.7377 24.1947 34.5526L19 31.6667V14.1598C19 13.3978 19.8181 12.9158 20.4847 13.2851L30.875 19.0422V4.54674C30.875 4.18357 31.0719 3.84895 31.3894 3.67258Z" fill="#00FFF6"/>
<path d="M1.39971e-06 38.6888L4.67325e-07 2.81096L18.6561 0.0508808C18.8373 0.0240739 19 0.164483 19 0.347651L19 41.6432C19 41.8295 18.832 41.9707 18.6485 41.9387L1.39971e-06 38.6888Z" fill="#00FFF6" fill-opacity="0.8"/>
</g>
</svg>
